<?xml version="1.0" encoding="UTF-8" standalone="no"?>
<!-- Created with Inkscape (http://www.inkscape.org/) -->

<svg
   width="46.217598mm"
   height="32.37183mm"
   viewBox="0 0 46.217598 32.37183"
   version="1.1"
   id="svg5"
   inkscape:version="1.1 (c68e22c387, 2021-05-23)"
   sodipodi:docname="Net_Broke.svg"
   xmlns:inkscape="http://www.inkscape.org/namespaces/inkscape"
   xmlns:sodipodi="http://sodipodi.sourceforge.net/DTD/sodipodi-0.dtd"
   xmlns:xlink="http://www.w3.org/1999/xlink"
   xmlns="http://www.w3.org/2000/svg"
   xmlns:svg="http://www.w3.org/2000/svg">
  <sodipodi:namedview
     id="namedview7"
     pagecolor="#ffffff"
     bordercolor="#666666"
     borderopacity="1.0"
     inkscape:pageshadow="2"
     inkscape:pageopacity="0.0"
     inkscape:pagecheckerboard="0"
     inkscape:document-units="mm"
     showgrid="false"
     inkscape:snap-global="false"
     inkscape:zoom="5.6568542"
     inkscape:cx="83.703765"
     inkscape:cy="57.540814"
     inkscape:window-width="1920"
     inkscape:window-height="1017"
     inkscape:window-x="1912"
     inkscape:window-y="-8"
     inkscape:window-maximized="1"
     inkscape:current-layer="layer1"
     fit-margin-top="5"
     fit-margin-left="5"
     fit-margin-right="5"
     fit-margin-bottom="5" />
  <defs
     id="defs2">
    <linearGradient
       inkscape:collect="always"
       id="linearGradient5651">
      <stop
         style="stop-color:#3558a1;stop-opacity:1"
         offset="0"
         id="stop5649" />
      <stop
         style="stop-color:#0b29c6;stop-opacity:1"
         offset="1"
         id="stop5647" />
    </linearGradient>
    <radialGradient
       inkscape:collect="always"
       xlink:href="#linearGradient5651"
       id="radialGradient5653"
       cx="154.07076"
       cy="43.440441"
       fx="154.07076"
       fy="43.440441"
       r="16.717172"
       gradientTransform="matrix(1,0,0,0.1923663,0,35.86944)"
       gradientUnits="userSpaceOnUse" />
    <radialGradient
       inkscape:collect="always"
       xlink:href="#linearGradient5651"
       id="radialGradient5661"
       cx="154.87939"
       cy="51.424465"
       fx="154.87939"
       fy="51.424465"
       r="16.717171"
       gradientTransform="matrix(1,0,0,0.19236633,0,41.532129)"
       gradientUnits="userSpaceOnUse" />
    <radialGradient
       inkscape:collect="always"
       xlink:href="#linearGradient5651"
       id="radialGradient5669"
       cx="152.54919"
       cy="49.045586"
       fx="152.54919"
       fy="49.045586"
       r="2.2421029"
       gradientTransform="matrix(1,0,0,2.2147877,0,-59.579978)"
       gradientUnits="userSpaceOnUse" />
    <radialGradient
       inkscape:collect="always"
       xlink:href="#linearGradient5651"
       id="radialGradient5677"
       cx="139.53328"
       cy="55.151665"
       fx="139.53328"
       fy="55.151665"
       r="5.7804232"
       gradientTransform="matrix(1,0,0,2.2057319,0,-66.498123)"
       gradientUnits="userSpaceOnUse" />
    <radialGradient
       inkscape:collect="always"
       xlink:href="#linearGradient5651"
       id="radialGradient5685"
       cx="158.77135"
       cy="55.178013"
       fx="158.77135"
       fy="55.178013"
       r="4.222044"
       gradientTransform="matrix(1,0,0,2.3152987,0,-72.575568)"
       gradientUnits="userSpaceOnUse" />
    <radialGradient
       inkscape:collect="always"
       xlink:href="#linearGradient5651"
       id="radialGradient5693"
       cx="165.7677"
       cy="56.55344"
       fx="165.7677"
       fy="56.55344"
       r="5.7801285"
       gradientTransform="matrix(0.29770609,0.10842636,-0.74543257,2.0467332,160.7157,-79.980436)"
       gradientUnits="userSpaceOnUse" />
    <radialGradient
       inkscape:collect="always"
       xlink:href="#linearGradient5651"
       id="radialGradient5765"
       cx="161.61328"
       cy="59.936611"
       fx="161.61328"
       fy="59.936611"
       r="8.7926712"
       gradientTransform="matrix(1,0,0,0.19506369,0,48.245155)"
       gradientUnits="userSpaceOnUse" />
    <radialGradient
       inkscape:collect="always"
       xlink:href="#linearGradient5651"
       id="radialGradient5773"
       cx="140.35962"
       cy="56.792416"
       fx="140.35962"
       fy="56.792416"
       r="3.3880129"
       gradientTransform="matrix(1,0,0,0.46922058,0,30.144245)"
       gradientUnits="userSpaceOnUse" />
    <radialGradient
       inkscape:collect="always"
       xlink:href="#linearGradient5651"
       id="radialGradient5781"
       cx="145.73299"
       cy="65.271896"
       fx="145.73299"
       fy="65.271896"
       r="2.4558477"
       gradientTransform="matrix(1,0,0,1.5556565,0,-36.268756)"
       gradientUnits="userSpaceOnUse" />
    <radialGradient
       inkscape:collect="always"
       xlink:href="#linearGradient5651"
       id="radialGradient5789"
       cx="147.10744"
       cy="66.727409"
       fx="147.10744"
       fy="66.727409"
       r="16.717173"
       gradientTransform="matrix(1,0,0,0.1923663,0,53.498569)"
       gradientUnits="userSpaceOnUse" />
    <radialGradient
       inkscape:collect="always"
       xlink:href="#linearGradient5651"
       id="radialGradient6996"
       gradientUnits="userSpaceOnUse"
       gradientTransform="matrix(1,0,0,1.5556565,8.7931674,-35.192996)"
       cx="145.73299"
       cy="65.271896"
       fx="145.73299"
       fy="65.271896"
       r="2.4558477" />
  </defs>
  <g
     inkscape:label="Layer 1"
     inkscape:groupmode="layer"
     id="layer1"
     transform="translate(-131.5731,-40.598866)">
    <path
       id="rect3410"
       style="opacity:1;vector-effect:none;fill:url(#radialGradient5677);fill-opacity:1;fill-rule:evenodd;stroke:none;stroke-width:0.264583;stroke-opacity:0.766129;stop-color:#000000;stop-opacity:1"
       d="m 144.02927,41.054431 c 0.81668,-0.699634 1.61499,0.204194 1.56342,0.55989 -0.11404,0.786574 -2.11775,8.548634 -4.40316,14.379134 -2.28541,5.8305 -5.08636,11.413237 -5.58153,11.659057 -0.99035,0.491639 -1.61209,0.259323 -1.85208,-0.727604 -0.12,-0.493464 3.31385,-5.940951 5.62301,-11.683256 2.30917,-5.742305 4.242,-13.837403 4.65034,-14.187221 z"
       sodipodi:nodetypes="sssssss" />
    <path
       id="path4151"
       style="opacity:1;vector-effect:none;fill:url(#radialGradient5781);fill-opacity:1;fill-rule:evenodd;stroke:none;stroke-width:0.264583;stroke-opacity:0.766129;stop-color:#000000;stop-opacity:1"
       d="m 148.18883,62.562881 c -1.91124,2.041954 -2.56067,6.034437 -3.05584,6.280257 -0.99035,0.491639 -1.61208,0.259323 -1.85208,-0.727604 -0.12,-0.493464 2.65904,-4.911963 2.86345,-5.789962 1.43659,-1.783956 1.77175,-0.385885 2.04447,0.237309 z"
       sodipodi:nodetypes="csscc" />
    <path
       id="path4153"
       style="opacity:1;vector-effect:none;fill:url(#radialGradient5685);fill-opacity:1;fill-rule:evenodd;stroke:none;stroke-width:0.264583;stroke-opacity:0.766129;stop-color:#000000;stop-opacity:1"
       d="m 161.52249,43.988923 c 0.81668,-0.699634 1.59082,0.268204 1.46988,0.606661 -0.34791,0.973663 -1.79035,8.080913 -4.07576,13.911413 -2.28541,5.8305 -1.85908,4.070006 -2.35425,4.315826 -0.99035,0.491639 -0.9105,0.446412 -1.1505,-0.540515 -0.12,-0.493464 -0.61501,1.215191 1.69415,-4.527114 2.30917,-5.742305 4.00814,-13.416453 4.41648,-13.766271 z"
       sodipodi:nodetypes="sssssss" />
    <path
       id="path4155"
       style="opacity:1;vector-effect:none;fill:url(#radialGradient5693);fill-opacity:1;fill-rule:evenodd;stroke:none;stroke-width:0.264583;stroke-opacity:0.766129;stop-color:#000000;stop-opacity:1"
       d="m 170.62792,43.79908 c 0.81668,-0.699634 1.68972,0.316945 1.56342,0.653434 -0.34791,0.92689 -2.25807,9.811483 -4.54348,15.641983 -2.28541,5.8305 -5.08636,11.413237 -5.58153,11.659057 -0.99035,0.491639 -1.61208,0.259323 -1.85208,-0.727604 -0.12,-0.493464 3.31385,-5.940951 5.62301,-11.683256 2.30917,-5.742305 4.38232,-15.193796 4.79066,-15.543614 z"
       sodipodi:nodetypes="sssssss" />
    <path
       id="path4157"
       style="opacity:1;vector-effect:none;fill:url(#radialGradient5661);fill-opacity:1;fill-rule:evenodd;stroke:none;stroke-width:0.297624;stroke-opacity:0.766129;stop-color:#000000;stop-opacity:1"
       d="m 171.1309,52.532946 c 1.08265,0.651442 -0.001,2.0719 -0.45437,2.106853 -0.22631,0.01747 -8.21634,-0.4357 -16.03694,-1.445001 -7.82058,-1.009292 -15.47172,-2.574674 -15.90748,-3.007128 -0.87153,-0.864948 -0.74942,-1.521613 0.40771,-1.963617 0.57856,-0.221017 8.23066,1.991564 15.94845,3.042597 7.71783,1.051052 15.50133,0.940575 16.04263,1.266296 z"
       sodipodi:nodetypes="sssssss" />
    <path
       id="path4334"
       style="opacity:1;vector-effect:none;fill:url(#radialGradient5765);fill-opacity:1;fill-rule:evenodd;stroke:none;stroke-width:0.297624;stroke-opacity:0.766129;stop-color:#000000;stop-opacity:1"
       d="m 169.94028,59.544404 c 1.08265,0.651442 -0.001,2.0719 -0.45437,2.106853 -0.22631,0.01747 -8.21634,-0.4357 -16.03694,-1.445001 -1.40446,-0.782606 -0.0927,-2.295806 0.44867,-1.928148 7.71783,1.051052 15.50133,0.940575 16.04264,1.266296 z"
       sodipodi:nodetypes="ssccs" />
    <path
       id="path4336"
       style="opacity:1;vector-effect:none;fill:url(#radialGradient5789);fill-opacity:1;fill-rule:evenodd;stroke:none;stroke-width:0.297624;stroke-opacity:0.766129;stop-color:#000000;stop-opacity:1"
       d="m 166.63299,67.349612 c 1.08265,0.651442 -0.001,2.0719 -0.45437,2.106853 -0.22631,0.01747 -8.21634,-0.4357 -16.03694,-1.445001 -7.82058,-1.009292 -15.47172,-2.574674 -15.90748,-3.007128 -0.87153,-0.864948 -0.74943,-1.521613 0.4077,-1.963617 0.57856,-0.221017 8.23066,1.991564 15.94845,3.042597 7.71783,1.051052 15.50133,0.940575 16.04264,1.266296 z"
       sodipodi:nodetypes="sssssss" />
    <path
       id="path4338"
       style="opacity:1;vector-effect:none;fill:url(#radialGradient5653);fill-opacity:1;fill-rule:evenodd;stroke:none;stroke-width:0.297624;stroke-opacity:0.766129;stop-color:#000000;stop-opacity:1"
       d="m 174.4382,45.521487 c 1.08265,0.651442 -0.001,2.0719 -0.45437,2.106853 -0.22631,0.01747 -8.07602,-0.716333 -15.89662,-1.725634 -7.82058,-1.009292 -15.61204,-2.668218 -16.0478,-3.100672 -0.87153,-0.864948 -0.74943,-1.147436 0.4077,-1.58944 0.57856,-0.221017 8.23066,1.991564 15.94845,3.042597 7.71783,1.051052 15.50133,0.940575 16.04264,1.266296 z"
       sodipodi:nodetypes="sssssss" />
    <path
       id="path4340"
       style="opacity:1;vector-effect:none;fill:url(#radialGradient5669);fill-opacity:1;fill-rule:evenodd;stroke:none;stroke-width:0.264583;stroke-opacity:0.766129;stop-color:#000000;stop-opacity:1"
       d="m 153.64781,42.899868 c 0.3532,-1.015727 1.41529,0.294103 1.4231,0.653433 0.0263,1.207524 -2.39839,8.080913 -2.95322,9.608374 -0.52028,1.626712 -1.7274,0.596103 -1.8106,-0.424398 1.09308,-1.345721 3.0727,-9.066642 3.34072,-9.837409 z"
       sodipodi:nodetypes="ssccs" />
    <path
       id="path4969"
       style="opacity:1;vector-effect:none;fill:url(#radialGradient5773);fill-opacity:1;fill-rule:evenodd;stroke:none;stroke-width:0.297624;stroke-opacity:0.766129;stop-color:#000000;stop-opacity:1"
       d="m 142.41074,58.382141 c -2.30147,-0.494798 -4.43349,-0.750559 -4.86925,-1.183013 -0.87153,-0.864948 -0.74943,-1.521613 0.4077,-1.963617 0.57856,-0.221017 2.47768,0.728715 4.91022,1.218482 1.64593,0.189755 0.71222,1.821363 -0.44867,1.928148 z"
       sodipodi:nodetypes="csscc" />
    <path
       id="path6994"
       style="opacity:1;vector-effect:none;fill:url(#radialGradient6996);fill-opacity:1;fill-rule:evenodd;stroke:none;stroke-width:0.264583;stroke-opacity:0.766129;stop-color:#000000;stop-opacity:1"
       d="m 155.85946,66.21111 c -0.36776,1.059739 -1.43814,3.461968 -1.93331,3.707788 -0.99035,0.491639 -1.61208,0.259323 -1.85208,-0.727604 -0.12,-0.493464 1.34942,-2.152405 1.55383,-3.030404 0.68823,-0.848513 1.95884,-0.572974 2.23156,0.05022 z"
       sodipodi:nodetypes="csscc" />
  </g>
</svg>
